<?xml version="1.0" standalone="no"?>
<!DOCTYPE svg PUBLIC "-//W3C//DTD SVG 20010904//EN"
 "http://www.w3.org/TR/2001/REC-SVG-20010904/DTD/svg10.dtd">
<svg version="1.0" xmlns="http://www.w3.org/2000/svg"
 width="700.000000pt" height="700.000000pt" viewBox="0 0 700.000000 700.000000"
 preserveAspectRatio="xMidYMid meet">
<metadata>
Created by potrace 1.11, written by Peter Selinger 2001-2013
</metadata>
<g transform="translate(0.000000,700.000000) scale(0.100000,-0.100000)"
fill="#000000" stroke="none">
<path d="M1985 6216 c-70 -17 -119 -42 -163 -85 -52 -48 -89 -109 -103 -168
-14 -58 -18 -62 -55 -69 -87 -15 -189 -90 -236 -174 -33 -58 -44 -97 -47 -170
-1 -23 -7 -33 -28 -41 -134 -51 -222 -156 -240 -289 -7 -45 -12 -55 -28 -56
-39 -2 -64 -15 -94 -49 -29 -33 -30 -38 -26 -108 2 -40 9 -94 15 -120 5 -26
12 -62 14 -80 4 -28 178 -1080 191 -1147 2 -14 38 -230 80 -480 41 -250 77
-466 79 -480 3 -14 82 -488 175 -1055 94 -566 176 -1046 182 -1066 16 -50 51
-86 98 -99 27 -7 572 -9 1722 -8 1884 3 1727 -3 1764 75 14 29 232 1293 329
1903 3 19 22 132 41 250 20 118 38 229 41 245 2 17 7 41 9 55 9 44 12 64 21
120 4 30 8 57 9 60 2 8 17 102 21 125 1 11 23 144 49 295 25 151 48 289 51
305 2 17 6 41 9 55 3 14 7 39 10 55 2 17 39 235 81 485 42 250 77 486 78 523
1 67 0 69 -36 103 -21 19 -48 34 -60 35 -30 1 -71 8 -76 14 -2 2 0 18 6 35 22
63 0 198 -45 267 -83 128 -244 195 -386 159 l-26 -6 0 65 c0 74 -4 91 -37 160
-31 62 -48 83 -106 127 -136 104 -333 93 -453 -26 -28 -28 -59 -61 -67 -74
-16 -23 -16 -23 -49 -6 -37 19 -187 26 -245 11 -28 -7 -31 -6 -29 15 6 86 -79
220 -173 273 -150 85 -321 60 -443 -65 -35 -37 -35 -37 -75 -22 -110 39 -264
0 -355 -92 -46 -47 -89 -129 -96 -187 l-6 -40 -41 5 c-22 3 -42 5 -42 5 -1 1
2 18 6 39 18 101 -28 231 -108 309 -197 187 -526 90 -593 -174 -12 -52 -14
-53 -48 -53 -33 0 -36 2 -37 30 -1 17 -16 60 -33 95 -73 147 -241 228 -396
191z"/>
</g>
</svg>
